<?xml version="1.0" encoding="UTF-8"?>
<svg xmlns="http://www.w3.org/2000/svg" viewBox="0 0 216.56 300.59">
  <defs>
    <style>
      .cls-1 {
        isolation: isolate;
      }

      .cls-2 {
        fill: #fff;
        stroke-width: 0px;
      }

      .cls-3 {
        mix-blend-mode: multiply;
      }
    </style>
  </defs>
  <g class="cls-1">
    <g id="Layer_1" data-name="Layer 1">
      <path class="cls-2" d="M216.56,107.59c0,100.29-108.28,193.01-108.28,193.01,0,0-11.66-10.03-27.32-27.04-5.2-5.62-10.82-12.03-16.63-19.14C34.33,217.86,0,163.75,0,107.59S42.13,5.9,96.39,0l1.16,51.05c.24,10.03-3.25,19.74-9.71,27.31l-20.3,23.83c-5.76,6.74-8.64,15.42-8.13,24.16,0,.46.05.83.1,1.25l9.05,75.39c.28,2.69,2.51,4.74,5.16,4.74,1.53,0,3.07-.65,4.13-1.72,1.12-1.11,1.72-2.6,1.72-4.13l-.05-66.47.05-.61c0-2.97,2.41-5.34,5.29-5.29,2.98,0,5.34,2.37,5.34,5.34v87.1c0,1.86.7,3.57,2,4.88,1.26,1.25,3.02,2,4.84,1.95,3.99.05,7.24-3.21,7.24-7.24v-86.68c0-2.98,2.37-5.34,5.34-5.34s5.3,2.32,5.3,5.29v87.43c0,3.58,2.93,6.55,6.6,6.6,1.81,0,3.62-.74,4.93-2.09,1.3-1.3,2.04-3.06,2.04-4.88v-87.05c0-2.97,2.37-5.34,5.34-5.34,2.46,0,4.6,1.76,5.11,4.13.19.33.19.74.24,1.21v67.36c-.05,3.07,2.46,5.57,5.53,5.53,1.02,0,1.95-.23,2.79-.7l2.51-2.51.05-.05c.32-.69.55-1.44.65-2.28l9.01-74.6c.18-1.72.23-3.44.05-5.11-.33-7.48-3.16-14.54-8.04-20.26l-20.3-23.83c-6.46-7.62-9.89-17.33-9.66-27.27L122.87.33c52.86,7.06,93.69,52.4,93.69,107.26Z"/>
      <g class="cls-3">
        <path class="cls-2" d="M147.49,206.99l-66.52,66.57c-5.2-5.62-10.82-12.03-16.63-19.14C34.33,217.86,0,163.75,0,107.59S42.13,5.9,96.39,0l1.16,51.05c.24,10.03-3.25,19.74-9.71,27.31l-20.3,23.83c-5.76,6.74-8.64,15.42-8.13,24.16,0,.46.05.83.1,1.25l9.05,75.39c.28,2.69,2.51,4.74,5.16,4.74,1.53,0,3.07-.65,4.13-1.72,1.12-1.11,1.72-2.6,1.72-4.13l-.05-66.47.05-.61c0-2.97,2.41-5.34,5.29-5.29,2.98,0,5.34,2.37,5.34,5.34v87.1c0,1.86.7,3.57,2,4.88,1.26,1.25,3.02,2,4.84,1.95,3.99.05,7.24-3.21,7.24-7.24v-86.68c0-2.98,2.37-5.34,5.34-5.34s5.3,2.32,5.3,5.29v87.43c0,3.58,2.93,6.55,6.6,6.6,1.81,0,3.62-.74,4.93-2.09,1.3-1.3,2.04-3.06,2.04-4.88v-87.05c0-2.97,2.37-5.34,5.34-5.34,2.46,0,4.6,1.76,5.11,4.13.19.33.19.74.24,1.21v67.36c-.05,3.07,2.46,5.57,5.53,5.53,1.02,0,1.95-.23,2.79-.7Z"/>
      </g>
    </g>
  </g>
</svg>