<?xml version="1.0" encoding="UTF-8"?>
<svg id="OBJECTS" xmlns="http://www.w3.org/2000/svg" viewBox="0 0 200 262.79">
  <defs>
    <style>
      .cls-1 {
        fill: #fff;
      }

      .cls-1, .cls-2 {
        stroke-width: 0px;
      }

      .cls-2 {
        fill: #fc6042;
      }
    </style>
  </defs>
  <path class="cls-2" d="M77.96,64.46c-1.34-.14-5.38-1.79-6.57-1.15-14.91,7.92-29.82,22.06-39.16,38.23-15.11,26.17-16.57,56.16-6.44,80.57,6.4-10.54,11.2-21.93,18.49-32.04,7.99-11.09,15.99-22.74,25.81-32.33,12.61-12.31,40.59-31.47,57.99-19.17,8.26,5.84,12.41,15.94,15.76,25.1,3.92,10.73,8.4,21.8,10.36,33.07,3.15,18.13.8,36.21-5.26,53.17,9.18-7.26,17.27-16.44,23.58-27.37,16.29-28.22,16.72-60.87,3.86-86.18-.07-.13-8.7,1.57-15.52-1.1-13.29-5.21-59.5-28.29-82.91-30.79Z"/>
  <path class="cls-1" d="M109.16,95.31s39.98,22.21,39.61,82.92c-.37,60.71-39.61,81.44-39.61,81.44,0,0,61.45,19.25,79.59-37.76,11.58-42.01-19.51-57.65-27.29-101.7-7.77-44.05-43.51-48.86-52.3-44.42,0,0-29.32-15.63-50.7,30.73-18.1,45.36-31.94,51.72-49.71,70.88C-9.01,196.55-.13,245.69,39.02,253.46c0,0-19.16-39.7,1.67-82.73,20.82-43.03,50.62-35.91,68.48-75.42Z"/>
  <path class="cls-1" d="M128.22,1.94c3.47,0,7.22.36,11.24,1.19,26.51,5.53,24.66,28.03,24.66,28.03,0,0,.42-.03,1.15-.03,5.16,0,25.94,1.58,24.46,27.14,0,0,9.98,4.19,8.09,20.8-1.18,10.4-8.52,12.34-13.84,12.34-3.18,0-5.64-.69-5.64-.69,0,0-2.21,5.84-8.43,5.84-2.75,0-6.28-1.14-10.75-4.43l-78.3-27.26s-14.37-3.15-17.04-12.4c-2.67-9.26,5.16-12.4,5.16-12.4,0,0-9.31-28.81,16.45-28.81,3.58,0,7.83.55,12.87,1.82,0,0,10.54-11.12,29.92-11.12M128.22,0c-17.12,0-27.57,8.26-30.5,10.92-4.56-1.08-8.69-1.62-12.3-1.62-7.55,0-13.08,2.34-16.45,6.97-5.46,7.51-3.35,18.67-2.3,22.8-3.17,2-6.86,6.56-4.73,13.93,2.86,9.89,16.82,13.37,18.37,13.73l77.92,27.13c4.24,3.08,8.17,4.64,11.66,4.64,5.34,0,8.22-3.47,9.47-5.56,1.12.2,2.75.42,4.6.42,5.29,0,14.37-1.83,15.77-14.06,1.64-14.44-5.13-20.31-8.02-22.13.27-8.57-1.9-15.37-6.47-20.21-6.2-6.57-14.99-7.64-19.21-7.75-.31-6.04-3.25-23.18-26.19-27.96-3.93-.82-7.85-1.24-11.63-1.24h0Z"/>
  <path class="cls-1" d="M159.51,110.64c-.3-.25-30.54-25.09-67.83-25.09-7.78,0-15.43,1.08-22.72,3.22l-1.39.41.15-1.44c1.78-17.08,8.77-23.55,9.07-23.82l.25-.22.33-.03c.1,0,2.6-.2,6.81-.2,15.43,0,53.7,2.57,75.83,26.37l.24.26.96,21.93-1.69-1.41Z"/>
  <g>
    <path class="cls-1" d="M181.51,73.81c-3.13,4.38-7.37,8.03-12.38,10.33-2.47,1.19-5.19,2.07-7.98,2.15-2.79.18-5.57-.47-8.07-1.5l.05-.19c2.73-.02,5.31.16,7.86-.27,2.53-.32,5.1-.7,7.53-1.64,2.43-.91,4.76-2.17,6.9-3.71,2.15-1.52,4.19-3.27,5.92-5.29l.16.12Z"/>
    <path class="cls-1" d="M160.23,47.45c.02,3.46-.62,6.93-1.9,10.18-1.32,3.23-3.25,6.29-5.87,8.7-.59.68-1.35,1.15-2.02,1.73l-1.04.84-1.14.69c-.78.43-1.52.93-2.33,1.3l-2.5.93c-1.66.63-3.44.79-5.16,1.11-1.75.14-3.5.15-5.23.09v-.2c1.66-.51,3.33-.83,4.97-1.25.8-.29,1.61-.52,2.4-.78.8-.23,1.61-.46,2.35-.84l2.3-.93c.76-.33,1.47-.75,2.2-1.12l1.11-.56,1.02-.7c.66-.5,1.42-.88,2-1.47,2.57-2.11,4.57-4.89,6.02-7.92,1.47-3.03,2.37-6.38,2.61-9.78h.2Z"/>
    <path class="cls-1" d="M105,43.38c-.25,2.05-.28,4.13-.19,6.17.08,2.05.3,4.08.75,6.05.46,1.98,1.28,3.79,1.98,5.61.78,1.81,1.77,3.48,2.92,5.28l-.13.15c-1.9-1-3.46-2.67-4.56-4.56-1.07-1.93-1.46-4.11-1.76-6.21-.54-4.24-.2-8.48.8-12.54l.19.04Z"/>
    <path class="cls-1" d="M79.49,50.95c.37,1.41.89,2.77,1.51,4.07.59,1.31,1.29,2.56,2.1,3.7.83,1.14,1.9,2.01,2.8,3.01.94.99,1.99,1.8,3.17,2.83l-.06.19c-1.56,0-3.12-.58-4.39-1.52-1.29-.95-2.1-2.34-2.85-3.67-1.44-2.7-2.24-5.63-2.47-8.58l.2-.03Z"/>
    <path class="cls-1" d="M84.17,64.46c15.34,0,53.24,2.54,75.12,26.06l.85,19.38s-30.35-25.31-68.46-25.31c-7.43,0-15.15.96-23,3.26,1.77-16.91,8.75-23.2,8.75-23.2,0,0,2.51-.19,6.73-.19M84.17,62.52h0c-4.25,0-6.78.19-6.88.2l-.66.05-.49.44c-.31.28-7.56,6.99-9.38,24.44l-.3,2.88,2.78-.81c7.21-2.11,14.76-3.18,22.45-3.18,36.93,0,66.92,24.62,67.22,24.86l3.37,2.81-.19-4.38-.85-19.38-.03-.71-.49-.52c-22.39-24.08-60.99-26.68-76.54-26.68h0Z"/>
  </g>
  <g>
    <path class="cls-1" d="M56.51,139.64c4.23,20,11.78,39.98,25.85,54.96,23.68,25.45,49.81-.41,64.69-21.53,1.98-2.79,3.85-5.66,5.63-8.58,3.86-8.89-.34-20.03-3.15-28.96-6.34-16.6-18.5-40.53-35.82-47.27-20.4-7.1-47.83,36.22-57.2,51.38h0ZM56.51,139.64c9.23-18.46,33.22-61.36,58.09-54.16,18.35,6.96,31,31.62,37.66,49.05,2.32,6.59,4.3,13.37,4.79,20.53.18,3.54.07,7.36-1.88,10.92-9.25,14.73-20.24,29.2-35.71,37.87-14.65,7.97-27.85,4.4-39.16-7.2-14.91-15.12-21.23-36.46-23.79-57.01h0Z"/>
    <g>
      <path class="cls-1" d="M95.99,154.65l-.77,4.99c-.22,1.63-.44,3.32-.21,4.76.07.34.17.65.31.85.07.11.16.11.22.21l.45.18c.66.2,1.44.17,2.23.09,1.58-.22,3.19-.71,4.8-1.28-1.33,1.07-2.85,1.95-4.58,2.41-.86.23-1.8.33-2.79.14-.25-.07-.49-.15-.73-.25-.25-.18-.56-.36-.73-.6-.37-.49-.52-.99-.63-1.48-.25-1.9.09-3.61.54-5.27.45-1.66,1.09-3.25,1.89-4.76Z"/>
      <path class="cls-1" d="M101.39,183.68c-5.07,0-10.05-2.93-14.84-8.73l-1.39-1.68,1.98.92c.16.08,16.21,7.32,31.15-3.83l1.86-1.39-1.13,2.02c-.27.48-6.67,11.75-16.42,12.63-.4.04-.8.05-1.19.05ZM88.57,175.79c4.55,4.98,9.2,7.27,13.92,6.85,6.76-.61,11.97-6.77,14.31-10.07-11.76,7.5-23.72,4.71-28.23,3.21Z"/>
      <g>
        <path class="cls-1" d="M71.46,146.85c.3-1.14.8-2.23,1.57-3.15.61-.77,1.42-1.35,2.31-1.8.91-.37,1.89-.55,2.85-.51,1.94.15,3.69,1.03,5.07,2.26,1.4,1.2,2.53,2.72,3.24,4.49-1.53-.89-2.92-1.74-4.31-2.42-1.39-.67-2.76-1.16-4.04-1.21-2.57-.26-4.87,1.62-6.98,4.53l-4.79-3.45,5.09,1.26Z"/>
        <path class="cls-1" d="M115.14,140.52c1.17-1.6,2.85-2.96,4.92-3.62,1.04-.29,2.15-.37,3.24-.23,1.08.22,2.12.59,2.98,1.21,1.07.73,1.91,1.69,2.53,2.76l5.18-2.6-4.28,4.73s0,.01,0,.02c0,0,0,0-.01-.01h-.01s-.03-.03-.03-.03c-3.05-2.36-6.02-3.64-8.73-2.7-1.39.39-2.74,1.25-4.08,2.29-1.34,1.05-2.63,2.28-4.06,3.58.3-1.98,1.13-3.81,2.34-5.4Z"/>
      </g>
    </g>
    <g>
      <path class="cls-1" d="M132.99,124.75c-1.87-.74-3.85-1.17-5.82-1.35-1.97-.2-3.94-.08-5.8.41-1.88.45-3.5,1.45-5.08,2.47-1.65.96-3.01,2.32-4.65,3.64l-.16-.11c.75-1.94,1.94-3.79,3.66-5.12.8-.75,1.82-1.17,2.79-1.64,1.04-.31,2.06-.65,3.13-.77,4.23-.68,8.46.36,12.03,2.31l-.09.18Z"/>
      <path class="cls-1" d="M62.23,129.28c3.57-1.95,7.8-2.99,12.03-2.31,1.07.12,2.08.47,3.13.77.97.47,1.99.9,2.79,1.64,1.71,1.33,2.91,3.19,3.66,5.12l-.16.11c-1.64-1.31-3-2.67-4.65-3.64-1.57-1.02-3.19-2.02-5.08-2.47-1.85-.49-3.83-.6-5.8-.41-1.97.17-3.95.61-5.82,1.35l-.09-.18Z"/>
    </g>
  </g>
  <path class="cls-1" d="M41.2,175.57s-24.71,72.46,26.93,68.3c0,0-29.43-17.21-26.93-68.3Z"/>
  <path class="cls-1" d="M148.98,174.53s-.09,30.63-24.66,49.94c0,0,38.94-11.56,32.74-61.71l-8.09,11.77Z"/>
</svg>