<?xml version="1.0" encoding="UTF-8"?>
<svg id="OBJECTS" xmlns="http://www.w3.org/2000/svg" viewBox="0 0 370.59 439.85">
  <defs>
    <style>
      .cls-1 {
        fill: #652810;
      }

      .cls-1, .cls-2, .cls-3 {
        stroke-width: 0px;
      }

      .cls-2 {
        fill: #fff;
      }

      .cls-3 {
        fill: #e0942f;
      }
    </style>
  </defs>
  <path class="cls-3" d="M260.53,109.79c-64.84-37.44-150.73-10.05-191.85,61.16-25.29,43.81-27.74,93.99-10.79,134.85,10.71-17.63,18.75-36.7,30.95-53.63,13.38-18.57,26.77-38.07,43.2-54.11,21.1-20.6,67.93-52.67,97.06-32.09,13.82,9.77,20.77,26.67,26.38,42.02,6.56,17.96,14.06,36.5,17.34,55.34,5.28,30.34,1.34,60.61-8.8,89,15.36-12.15,28.91-27.51,39.47-45.81,41.11-71.21,21.88-159.29-42.96-196.72Z"/>
  <g>
    <path class="cls-1" d="M106.08,88.75c-2.46-5.07-2.93-10.48-1.83-15.63-30.1,17.6-56.63,43.53-75.75,76.64C-.69,200.32-7.42,259.5,8.15,311.28c2.34-11.01,6.72-21.44,13.58-29.77-6.02-40.34,1.94-83.75,23.93-121.85,16.22-28.09,38.3-50.46,63.35-66.27-1.1-1.42-2.1-2.94-2.93-4.65Z"/>
    <path class="cls-1" d="M366.06,183.56c-2.3-10.53-5.47-20.63-9.36-30.28-4.77,6.1-10.61,9.16-17.03,10.75,2.88,7.61,5.24,15.55,7.03,23.76,7.87,36.01,4.24,73.85-10.09,108.88,4.83,7.22,7.9,16.06,10.08,25.35,22.57-43.47,29.46-92.27,19.37-138.46Z"/>
  </g>
  <g>
    <path class="cls-2" d="M108.93,233.72s9.76,75.74,55.3,105.02c45.54,29.27,92.93-37.64,107.8-62.27,14.87-24.63-31.13-127.78-72.49-132.43-41.36-4.65-90.61,89.68-90.61,89.68Z"/>
    <path class="cls-1" d="M108.93,233.72c7.09,33.47,19.71,66.91,43.27,91.98,39.64,42.59,83.37-.68,108.27-36.04,3.31-4.67,6.44-9.48,9.42-14.36,6.46-14.89-.56-33.52-5.28-48.47-10.61-27.79-30.96-67.83-59.95-79.12-34.14-11.88-80.05,60.62-95.73,86h0ZM108.93,233.72c15.44-30.89,55.61-102.7,97.23-90.64,30.71,11.65,51.89,52.93,63.03,82.11,3.89,11.03,7.19,22.38,8.02,34.36.3,5.93.12,12.31-3.15,18.28-15.49,24.65-33.87,48.87-59.76,63.38-24.53,13.33-46.62,7.36-65.54-12.06-24.95-25.32-35.53-61.02-39.83-95.43h0Z"/>
  </g>
  <path class="cls-1" d="M197.06,159.52s66.91,37.17,66.29,138.78c-.62,101.61-66.29,136.3-66.29,136.3,0,0,102.85,32.22,133.21-63.2,19.38-70.32-32.66-96.5-45.67-170.22-13.01-73.73-72.82-81.78-87.54-74.35,0,0-49.08-26.16-84.86,51.44-30.29,75.92-53.46,86.57-83.2,118.63-29.74,32.06-14.87,114.31,50.65,127.32,0,0-32.06-66.45,2.79-138.47,34.85-72.02,84.73-60.1,114.62-126.24Z"/>
  <g>
    <path class="cls-1" d="M175.02,258.85l-1.29,8.36c-.36,2.73-.73,5.55-.36,7.97.13.56.29,1.09.52,1.42.11.18.27.19.37.35l.76.3c1.1.34,2.41.29,3.73.15,2.64-.37,5.35-1.19,8.03-2.14-2.23,1.79-4.76,3.27-7.66,4.03-1.44.39-3.02.56-4.67.23-.41-.11-.81-.25-1.23-.42-.42-.3-.94-.61-1.22-1-.62-.82-.86-1.66-1.06-2.47-.42-3.19.15-6.04.9-8.82.75-2.78,1.83-5.44,3.17-7.97Z"/>
    <path class="cls-1" d="M184.05,307.44c-8.48,0-16.83-4.91-24.84-14.61l-2.32-2.81,3.31,1.54c.27.13,27.13,12.26,52.13-6.42l3.11-2.32-1.89,3.38c-.45.8-11.17,19.66-27.48,21.14-.67.06-1.34.09-2,.09ZM162.6,294.23c7.61,8.33,15.4,12.16,23.3,11.47,11.31-1.03,20.04-11.33,23.95-16.85-19.68,12.55-39.71,7.89-47.24,5.38Z"/>
    <g>
      <path class="cls-1" d="M133.96,245.79c.5-1.91,1.35-3.72,2.63-5.26,1.02-1.29,2.38-2.27,3.86-3.01,1.52-.62,3.16-.92,4.78-.86,3.24.25,6.18,1.73,8.48,3.78,2.34,2.02,4.23,4.55,5.42,7.52-2.55-1.49-4.89-2.92-7.22-4.05-2.32-1.12-4.62-1.94-6.77-2.03-4.31-.44-8.15,2.71-11.68,7.58l-8.01-5.78,8.52,2.1Z"/>
      <path class="cls-1" d="M207.07,235.2c1.96-2.69,4.77-4.95,8.23-6.06,1.75-.48,3.6-.61,5.42-.39,1.8.36,3.54.99,4.99,2.03,1.8,1.22,3.2,2.83,4.24,4.62l8.68-4.35-7.16,7.92s0,.02.01.03c0,0-.02-.01-.02-.02l-.02.02-.05-.08c-5.1-3.95-10.07-6.09-14.61-4.52-2.32.65-4.59,2.09-6.83,3.83-2.24,1.76-4.4,3.82-6.79,6,.5-3.31,1.9-6.38,3.91-9.03Z"/>
    </g>
  </g>
  <g>
    <g>
      <path class="cls-2" d="M298.74,163.23c-5.55,0-11.86-2.55-18.76-7.59l-130.83-45.55c-.83-.17-24.86-5.61-29.55-21.84-3.93-13.6,4.8-20.07,8.26-22.04-1.49-5.34-6.1-25.16,3.26-38.03,5.31-7.29,14.13-10.99,26.21-10.99,6.13,0,13.21.97,21.05,2.87,3.61-3.45,20.96-18.44,50.57-18.44,6.23,0,12.67.68,19.14,2.03,39.61,8.26,42.52,39.01,42.6,46.82h.26c6.16,0,21.64,1.22,32.27,12.48,7.5,7.95,10.98,19.25,10.34,33.6,3.81,2.12,16.31,11.05,13.47,35.97-2.19,19.23-16.46,22.1-24.78,22.1-3.71,0-6.84-.53-8.53-.9-1.5,2.89-5.92,9.5-15.02,9.5Z"/>
      <path class="cls-1" d="M228.97,3.25c5.8,0,12.08.6,18.81,2,44.37,9.25,41.28,46.91,41.28,46.91,0,0,.7-.05,1.92-.05,8.64,0,43.41,2.64,40.94,45.43,0,0,16.7,7.01,13.54,34.81-1.98,17.4-14.26,20.66-23.16,20.66-5.32,0-9.44-1.16-9.44-1.16,0,0-3.7,9.77-14.1,9.77-4.6,0-10.51-1.91-17.99-7.42l-131.06-45.63s-24.05-5.26-28.52-20.76c-4.48-15.49,8.64-20.76,8.64-20.76,0,0-15.59-48.22,27.53-48.23,5.99,0,13.1.93,21.55,3.04,0,0,17.64-18.61,50.08-18.61M228.97,0c-28.66,0-46.15,13.82-51.04,18.28-7.63-1.8-14.54-2.71-20.58-2.71-12.63,0-21.9,3.92-27.53,11.66-9.14,12.56-5.61,31.26-3.85,38.16-5.3,3.35-11.49,10.97-7.92,23.31,4.78,16.55,28.15,22.38,30.75,22.99l130.43,45.41c7.1,5.15,13.67,7.76,19.52,7.76,8.94,0,13.76-5.82,15.85-9.31,1.87.34,4.59.7,7.69.7,8.86,0,24.06-3.06,26.39-23.54,2.75-24.16-8.58-34-13.43-37.05.46-14.35-3.18-25.72-10.82-33.82-10.38-10.99-25.1-12.79-32.15-12.98-.52-10.11-5.43-38.8-43.84-46.8-6.58-1.37-13.13-2.07-19.47-2.07h0Z"/>
    </g>
    <path class="cls-1" d="M318.15,123.55c-5.24,7.33-12.33,13.45-20.72,17.29-4.14,2-8.69,3.46-13.36,3.6-4.66.3-9.32-.78-13.5-2.52l.08-.32c4.57-.04,8.88.26,13.16-.46,4.24-.54,8.53-1.17,12.6-2.75,4.07-1.53,7.97-3.63,11.56-6.2,3.61-2.54,7.01-5.48,9.91-8.85l.27.2Z"/>
    <path class="cls-1" d="M282.54,79.41c.04,5.78-1.04,11.59-3.18,17.04-2.21,5.41-5.45,10.52-9.82,14.56-.98,1.13-2.26,1.92-3.38,2.89l-1.75,1.4-1.91,1.15c-1.3.72-2.55,1.56-3.9,2.17l-4.18,1.55c-2.78,1.05-5.76,1.32-8.63,1.86-2.92.23-5.86.24-8.75.15l-.02-.33c2.8-.85,5.6-1.39,8.34-2.09,1.34-.49,2.69-.88,4.02-1.31,1.35-.39,2.69-.77,3.94-1.4l3.86-1.56c1.26-.55,2.45-1.26,3.69-1.88l1.86-.94,1.7-1.18c1.1-.83,2.37-1.47,3.35-2.46,4.31-3.53,7.66-8.18,10.08-13.26,2.47-5.07,3.97-10.69,4.37-16.37h.33Z"/>
    <path class="cls-1" d="M190.09,72.6c-.42,3.43-.48,6.91-.31,10.33.13,3.42.51,6.83,1.26,10.13.76,3.31,2.14,6.34,3.31,9.4,1.3,3.04,2.96,5.83,4.89,8.85l-.22.25c-3.19-1.68-5.79-4.46-7.64-7.63-1.79-3.23-2.45-6.88-2.95-10.39-.9-7.1-.34-14.2,1.34-20.99l.32.07Z"/>
    <path class="cls-1" d="M147.4,85.28c.61,2.35,1.5,4.64,2.52,6.82.98,2.19,2.16,4.28,3.52,6.19,1.4,1.91,3.17,3.37,4.68,5.03,1.58,1.65,3.33,3.02,5.3,4.74l-.1.31c-2.61,0-5.22-.98-7.35-2.55-2.15-1.59-3.52-3.92-4.76-6.13-2.41-4.53-3.74-9.42-4.13-14.36l.33-.05Z"/>
    <g>
      <path class="cls-2" d="M281.34,185.19c-.5-.42-51.11-41.99-113.54-41.99-13.02,0-25.82,1.81-38.03,5.39l-2.32.68.25-2.41c2.99-28.59,14.68-39.41,15.18-39.86l.41-.37.55-.04c.17-.01,4.35-.33,11.4-.33,25.82,0,89.87,4.3,126.92,44.14l.41.44,1.6,36.7-2.82-2.35Z"/>
      <path class="cls-1" d="M155.23,107.88c25.67,0,89.12,4.25,125.73,43.62l1.42,32.44s-50.8-42.36-114.58-42.37c-12.43,0-25.35,1.61-38.49,5.45,2.96-28.3,14.65-38.82,14.65-38.82,0,0,4.21-.32,11.27-.32M155.23,104.63h0c-7.11,0-11.34.32-11.52.33l-1.1.08-.82.74c-.52.46-12.65,11.7-15.7,40.9l-.5,4.82,4.65-1.36c12.07-3.53,24.71-5.32,37.57-5.32,61.81,0,112.01,41.2,112.51,41.62l5.64,4.7-.32-7.34-1.42-32.44-.05-1.19-.81-.88c-37.48-40.31-102.08-44.66-128.11-44.66h0Z"/>
    </g>
  </g>
  <g>
    <path class="cls-1" d="M236.95,208.8c-3.12-1.24-6.45-1.96-9.74-2.25-3.29-.33-6.6-.13-9.71.68-3.15.75-5.87,2.43-8.49,4.13-2.76,1.61-5.04,3.89-7.79,6.09l-.28-.18c1.25-3.24,3.25-6.35,6.12-8.57,1.33-1.25,3.05-1.96,4.67-2.75,1.75-.51,3.45-1.09,5.24-1.3,7.09-1.14,14.16.6,20.13,3.87l-.15.29Z"/>
    <path class="cls-1" d="M118.51,216.39c5.97-3.26,13.05-5.01,20.13-3.87,1.78.21,3.49.79,5.24,1.3,1.62.79,3.33,1.5,4.67,2.75,2.87,2.23,4.87,5.33,6.12,8.57l-.28.18c-2.75-2.19-5.02-4.48-7.79-6.08-2.63-1.7-5.34-3.38-8.49-4.13-3.1-.81-6.42-1.01-9.71-.68-3.29.29-6.62,1.01-9.74,2.25l-.15-.29Z"/>
  </g>
  <path class="cls-1" d="M83.31,293.85s-41.36,121.28,45.07,114.31c0,0-49.26-28.81-45.07-114.31Z"/>
  <path class="cls-1" d="M263.7,292.11s-.16,51.27-41.27,83.59c0,0,65.18-19.35,54.81-103.29l-13.53,19.7Z"/>
</svg>